# Blender v3.0.1 OBJ File: 'wallTest.blend'
# www.blender.org
mtllib wallTest.mtl
o Cube_Cube.002
v -0.974426 -0.230452 0.974426
v -0.956503 -0.155590 0.956503
v -1.299235 0.190620 1.299235
v -0.974426 -0.230452 -0.974426
v -0.956503 -0.155590 -0.956503
v -1.299235 0.190620 -1.299235
v 0.974426 -0.230452 0.974426
v 0.956503 -0.155590 0.956503
v 1.299235 0.190620 1.299235
v 0.974426 -0.230452 -0.974426
v 0.956503 -0.155590 -0.956503
v 1.299235 0.190620 -1.299235
v -1.223564 0.190620 1.223564
v 1.223564 0.190620 -1.223564
v -1.223564 0.190620 -1.223564
v 1.223564 0.190620 1.223564
vt 0.375000 0.000000
vt 0.625000 0.000000
vt 0.625000 0.250000
vt 0.375000 0.250000
vt 0.625000 0.500000
vt 0.375000 0.500000
vt 0.625000 0.750000
vt 0.375000 0.750000
vt 0.625000 1.000000
vt 0.375000 1.000000
vt 0.125000 0.500000
vt 0.125000 0.750000
vt 0.875000 0.500000
vt 0.875000 0.750000
vt 0.632280 0.742720
vt 0.867720 0.742720
vt 0.867720 0.507280
vt 0.632280 0.507280
vt 0.375000 0.000000
vt 0.375000 0.250000
vt 0.584405 0.250000
vt 0.584404 0.000000
vt 0.375000 0.500000
vt 0.584405 0.500000
vt 0.375000 0.750000
vt 0.584405 0.750000
vt 0.375000 1.000000
vt 0.584405 1.000000
vt 0.125000 0.500000
vt 0.125000 0.750000
vn -0.7918 -0.6108 0.0000
vn 0.0000 -0.6108 -0.7918
vn 0.7918 -0.6108 0.0000
vn 0.0000 -0.6108 0.7918
vn 0.0000 -1.0000 0.0000
vn 0.0000 1.0000 0.0000
vn 0.7918 0.6108 0.0000
vn 0.0000 0.6108 0.7918
vn -0.7918 0.6108 0.0000
vn 0.0000 0.6108 -0.7918
usemtl None
s off
f 1/1/1 3/2/1 6/3/1 4/4/1
f 4/4/2 6/3/2 12/5/2 10/6/2
f 10/6/3 12/5/3 9/7/3 7/8/3
f 7/8/4 9/7/4 3/9/4 1/10/4
f 4/11/5 10/6/5 7/8/5 1/12/5
f 6/13/6 3/14/6 9/7/6 16/15/6 13/16/6 15/17/6
f 9/7/6 12/5/6 6/13/6 15/17/6 14/18/6 16/15/6
f 2/19/7 5/20/7 15/21/7 13/22/7
f 5/20/8 11/23/8 14/24/8 15/21/8
f 11/23/9 8/25/9 16/26/9 14/24/9
f 8/25/10 2/27/10 13/28/10 16/26/10
f 5/29/6 2/30/6 8/25/6 11/23/6
